<?xml version="1.0" standalone="no"?>
<!DOCTYPE svg PUBLIC "-//W3C//DTD SVG 1.1//EN"
  "http://www.w3.org/Graphics/SVG/1.1/DTD/svg11.dtd">
<svg version="1.1" xmlns="http://www.w3.org/2000/svg" xmlns:xlink="http://www.w3.org/1999/xlink" width="3840" height="2160" viewBox="5728 -942.25 3912 2200.5" id="ccdiagram"><filter id="grayscale"><feColorMatrix type="saturate" values="0"></feColorMatrix></filter><filter id="highlight"><feColorMatrix type="matrix" color-interpolation-filters="sRGB" values="0.20338 0 0 0 0
                0 0.58474 0 0 0
                0 0 0.97033 0 0
                0 0 0 1 0"></feColorMatrix></filter><defs><style type="text/css">@import url('https://fonts.googleapis.com/css?family=Open+Sans:400,700|Inconsolata:400');</style></defs><g><rect x="5728" y="-942.25" width="3912" height="2200.5" fill="#ffffff" id="interactionLayer"></rect><g pointer-events="auto"><g><g><g><polygon points="5805 -180, 6345 -180, 6390 -135, 6390 450, 6345 495, 5805 495, 5760 450, 5760 -135" fill="#e6e7e8" stroke-width="0" stroke="#ffffff"></polygon><polygon points="5805 -135, 6345 -135, 6345 450, 5805 450" fill="#ffffff"></polygon></g></g></g><g><g><g><polygon points="6683 -247, 7403 -247, 7448 -202, 7448 518, 7403 563, 6683 563, 6638 518, 6638 -202" fill="#e6e7e8" stroke-width="0" stroke="#ffffff"></polygon><polygon points="6683 -202, 7403 -202, 7403 518, 6683 518" fill="#ffffff"></polygon></g></g></g><g><g><g><polygon points="7763 -247, 8483 -247, 8528 -202, 8528 518, 8483 563, 7763 563, 7718 518, 7718 -202" fill="#e6e7e8" stroke-width="0" stroke="#ffffff"></polygon><polygon points="7763 -202, 8483 -202, 8483 518, 7763 518" fill="#ffffff"></polygon></g></g></g><g><g><g><polygon points="8843 -247, 9563 -247, 9608 -202, 9608 518, 9563 563, 8843 563, 8798 518, 8798 -202" fill="#e6e7e8" stroke-width="0" stroke="#ffffff"></polygon><polygon points="8843 -202, 9563 -202, 9563 518, 8843 518" fill="#ffffff"></polygon></g></g></g></g><g pointer-events="auto"><g></g></g><g pointer-events="auto"></g><g pointer-events="auto"></g><g pointer-events="auto"></g><g pointer-events="auto"></g><g pointer-events="auto"></g><g pointer-events="auto"></g><g pointer-events="auto"></g><g pointer-events="auto"></g><g pointer-events="none"></g><g pointer-events="auto"><g id="9d01a3aa-58c5-4bbd-bd3d-cfddc2cd265c-5e409587-dffa-43eb-be67-0eb14fb86d68"><g cursor="cell"><line x1="6755" y1="180" x2="6390" y2="180" stroke="red" stroke-width="8" opacity="0"></line><line x1="6755" y1="180" x2="6390" y2="180" stroke="#000000" stroke-width="2" stroke-linecap="round"></line><polygon points="6769 180, 6744 169, 6751 180, 6744 191, 6769 180" stroke-linejoin="round" fill="#000000" stroke="#000000" stroke-width="1"></polygon></g></g><g id="a9df3ca7-3601-4e5e-85a3-e7317673bf50-c280cc0e-9920-4283-8f10-fcca7c71fc17"><g cursor="cell"><line x1="7987" y1="180" x2="8920" y2="180" stroke="red" stroke-width="8" opacity="0"></line><line x1="7987" y1="180" x2="8920" y2="180" stroke="#000000" stroke-width="2" stroke-linecap="round"></line><polygon points="8933 180, 8909 169, 8916 180, 8909 191, 8933 180" stroke-linejoin="round" fill="#000000" stroke="#000000" stroke-width="1"></polygon></g></g><g id="9d01a3aa-58c5-4bbd-bd3d-cfddc2cd265c-57f5cd9c-0dbe-411c-814a-4a3f36455dbc"><g cursor="cell"><line x1="6840" y1="251" x2="6840" y2="360" stroke="red" stroke-width="8" opacity="0"></line><line x1="6840" y1="251" x2="6840" y2="360" stroke="#000000" stroke-width="2" stroke-linecap="round"></line></g></g><g id="f82595ef-7eb3-485f-8822-ec1a012d748a-4b37c75f-c6bc-4dea-830a-b089b9ca4e1d"><g cursor="cell"><line x1="9000" y1="360" x2="9078" y2="360" stroke="red" stroke-width="8" opacity="0"></line><line x1="9000" y1="360" x2="9078" y2="360" stroke="#000000" stroke-width="2" stroke-linecap="round"></line><polygon points="9092 360, 9067 349, 9074 360, 9067 371, 9092 360" stroke-linejoin="round" fill="#000000" stroke="#000000" stroke-width="1"></polygon></g></g><g id="c280cc0e-9920-4283-8f10-fcca7c71fc17-f82595ef-7eb3-485f-8822-ec1a012d748a"><g cursor="cell"><line x1="9000" y1="247" x2="9000" y2="360" stroke="red" stroke-width="8" opacity="0"></line><line x1="9000" y1="247" x2="9000" y2="360" stroke="#000000" stroke-width="2" stroke-linecap="round"></line></g></g><g id="a9df3ca7-3601-4e5e-85a3-e7317673bf50-d733be94-c692-40c4-be91-423e2229adf8"><g cursor="cell"><line x1="7920" y1="247" x2="7920" y2="360" stroke="red" stroke-width="8" opacity="0"></line><line x1="7920" y1="247" x2="7920" y2="360" stroke="#000000" stroke-width="2" stroke-linecap="round"></line></g></g><g id="9d01a3aa-58c5-4bbd-bd3d-cfddc2cd265c-a9df3ca7-3601-4e5e-85a3-e7317673bf50"><g cursor="cell"><line x1="6911" y1="180" x2="7840" y2="180" stroke="red" stroke-width="8" opacity="0"></line><line x1="6911" y1="180" x2="7840" y2="180" stroke="#000000" stroke-width="2" stroke-linecap="round"></line><polygon points="7853 180, 7829 169, 7836 180, 7829 191, 7853 180" stroke-linejoin="round" fill="#000000" stroke="#000000" stroke-width="1"></polygon></g></g><g id="57f5cd9c-0dbe-411c-814a-4a3f36455dbc-dad287d0-b4c5-4146-a4cd-2dfe2b69c551"><g cursor="cell"><line x1="6840" y1="360" x2="6918" y2="360" stroke="red" stroke-width="8" opacity="0"></line><line x1="6840" y1="360" x2="6918" y2="360" stroke="#000000" stroke-width="2" stroke-linecap="round"></line><polygon points="6932 360, 6907 349, 6914 360, 6907 371, 6932 360" stroke-linejoin="round" fill="#000000" stroke="#000000" stroke-width="1"></polygon></g></g><g id="d733be94-c692-40c4-be91-423e2229adf8-021704f0-ffed-4ce0-9743-a1c59c4225e5"><g cursor="cell"><line x1="7920" y1="360" x2="7998" y2="360" stroke="red" stroke-width="8" opacity="0"></line><line x1="7920" y1="360" x2="7998" y2="360" stroke="#000000" stroke-width="2" stroke-linecap="round"></line><polygon points="8012 360, 7987 349, 7994 360, 7987 371, 8012 360" stroke-linejoin="round" fill="#000000" stroke="#000000" stroke-width="1"></polygon></g></g></g><g pointer-events="auto"></g><g pointer-events="auto"></g><g pointer-events="auto"><g><g id="28f51e68-4853-4825-990f-ab87ca70eded"><svg x="6053" y="203" overflow="visible"><g transform="scale(2.760146409726303) "><circle cx="0" cy="0" fill="transparent" r="31"></circle><svg width="48" height="48" x="-24" y="-24" style="fill: rgb(255, 255, 255);"><svg xmlns="http://www.w3.org/2000/svg" width="48" height="48" viewBox="0 0 48 48"><g fill="none" fill-rule="evenodd"><path fill="#242F3E" d="M6.025 44c.499-9.915 8.37-17.822 17.975-17.822 3.248 0 6.43.914 9.205 2.644 5.149 3.211 8.448 8.961 8.769 15.178H6.025Zm8.167-30.122c0-5.446 4.4-9.878 9.809-9.878 5.407 0 9.806 4.432 9.806 9.878 0 5.447-4.399 9.879-9.806 9.879-5.409 0-9.809-4.432-9.809-9.879Zm20.071 13.247a19.419 19.419 0 0 0-5.565-2.354 11.894 11.894 0 0 0 7.109-10.893C35.807 7.329 30.51 2 24.001 2c-6.512 0-11.809 5.329-11.809 11.878 0 4.877 2.938 9.072 7.125 10.9C10.545 26.981 4 35.2 4 45a1 1 0 0 0 1 1h38a1 1 0 0 0 1-1c0-7.281-3.731-14.13-9.737-17.875Z"></path></g></svg></svg></g></svg></g></g><g><g id="8147ed95-b103-44ef-a35d-047d9f03bd6d"><svg x="6143" y="293" overflow="visible"><g transform="scale(2.2081171277810427) "><circle cx="0" cy="0" fill="transparent" r="31"></circle><svg width="48" height="48" x="-24" y="-24" style="fill: rgb(255, 255, 255);"><svg xmlns="http://www.w3.org/2000/svg" width="48" height="48" viewBox="0 0 48 48"><g fill="none" fill-rule="evenodd"><path fill="#BF0816" d="m32.626 24.794 1.752-5.121 1.768 5.121h-3.52Zm2.855-6.881H33.37l-4.057 11.088h1.953l.895-2.783h4.433l.928 2.783h1.953L35.48 17.913Zm-10.616 4.769h3.92v1.567h-3.92v4.752h-1.952V17.913h6.736v1.568h-4.784v3.201Zm-6.657-4.769h2.113v11.088h-1.792v-8.305l-2.88 5.522h-1.76l-2.784-5.489v8.272H9.313V17.913h2.176l3.327 6.608 3.392-6.608ZM24 44.002C12.973 44.002 4 35.029 4 24.001S12.973 4 24 4c11.03 0 20.003 8.973 20.003 20.001S35.03 44.002 24 44.002ZM24 2C11.869 2 2 11.869 2 24.001c0 12.132 9.869 22.001 22 22.001 12.133 0 22.003-9.869 22.003-22.001C46.003 11.869 36.133 2 24 2Z"></path></g></svg></svg></g></svg></g></g><g><g id="cf53d813-6b3c-4288-87fa-ba65731bee43"><svg x="5918" y="-45" overflow="visible"><g transform="scale(3.4501830121578787) "><circle cx="0" cy="0" fill="transparent" r="31"></circle><svg width="48" height="48" x="-24" y="-24" style="fill: rgb(255, 255, 255);"><svg xmlns="http://www.w3.org/2000/svg" width="48" height="48" viewBox="0 0 48 48"><g fill="none" fill-rule="evenodd"><path fill="#232F3D" d="m34.59 29.79-3.593 3.591V21.76h-2V33.27l-3.441-3.497-1.426 1.403 5.195 5.28c.188.19.443.297.709.298h.004c.265 0 .52-.106.707-.293l5.259-5.258-1.414-1.414Zm-12.24-2.066 1.414-1.414-5.258-5.258a.996.996 0 0 0-.707-.293h-.004a.998.998 0 0 0-.709.3l-5.196 5.277 1.426 1.402 3.441-3.495v13.311h2V24.131l3.593 3.593Zm-2.017 9.848 7.067.007.002-2-7.067-.007-.002 2Zm25.693-8.442c0 2.487-.754 4.498-2.243 5.975-2.451 2.435-6.007 2.485-6.287 2.485h-.012l-4.763-.005.002-2 4.768.005c.04 0 2.998-.02 4.894-1.914 1.089-1.088 1.641-2.617 1.641-4.546 0-1.182-.325-2.95-3.13-4.67-1.474-.903-2.855-1.2-3.379-1.286a1 1 0 0 1-.832-1.105c-.178-2.095-1.159-3.56-2.703-4.029-1.335-.404-2.764.068-3.645 1.204a.986.986 0 0 1-.941.376.997.997 0 0 1-.786-.64c-.618-1.666-1.511-3.063-2.655-4.157-1.41-1.348-5.28-4.249-10.751-2.039-3.135 1.267-5.593 4.905-5.593 8.283 0 .377.024.755.071 1.122a1.001 1.001 0 0 1-.817 1.111C7.02 23.764 4 25.157 4 29.298c0 3.145 1.799 4.884 3.308 5.79a3.357 3.357 0 0 0 1.721.473l6.152.006-.002 2-6.151-.006a5.352 5.352 0 0 1-2.75-.759C4.681 35.844 2 33.595 2 29.298c0-3.715 2.084-6.547 5.623-7.719-.008-.17-.012-.34-.012-.512 0-4.204 2.943-8.562 6.845-10.137 4.545-1.837 9.361-.919 12.882 2.448 1.032.986 1.89 2.172 2.559 3.536a5.301 5.301 0 0 1 4.665-.788c2.189.664 3.672 2.597 4.053 5.234 1.133.282 2.31.772 3.326 1.395 2.749 1.683 4.085 3.77 4.085 6.375Z"></path></g></svg></svg></g></svg></g></g><g><g id="13ce8d63-1e12-41fb-8f33-0d235f9d7769"><svg x="6773" y="-90" overflow="visible"><g transform="scale(2.760146409726303) "><circle cx="0" cy="0" fill="transparent" r="31"></circle><svg width="48" height="48" x="-24" y="-24" style="fill: rgb(255, 255, 255);"><svg xmlns="http://www.w3.org/2000/svg" width="48" height="48" viewBox="0 0 48 48"><g fill="none" fill-rule="evenodd"><path fill="#B0084D" d="M32 28c3.309 0 6 2.691 6 6s-2.691 6-6 6-6-2.691-6-6 2.691-6 6-6Zm0 14c4.411 0 8-3.589 8-8s-3.589-8-8-8-8 3.589-8 8 3.589 8 8 8Zm2-32.764L38.882 19h-9.764L34 9.236ZM27.5 21h13a1 1 0 0 0 .895-1.447l-6.5-13c-.34-.678-1.45-.678-1.79 0l-6.5 13A1 1 0 0 0 27.5 21ZM9 29h11V18H9v11Zm-1 2h13a1 1 0 0 0 1-1V17a1 1 0 0 0-1-1H8a1 1 0 0 0-1 1v13a1 1 0 0 0 1 1ZM4 44h40V4H4v40ZM45 2H3a1 1 0 0 0-1 1v42a1 1 0 0 0 1 1h42a1 1 0 0 0 1-1V3a1 1 0 0 0-1-1Z"></path></g></svg></svg></g></svg></g></g><g><g id="dad287d0-b4c5-4146-a4cd-2dfe2b69c551"><svg x="6998" y="360" overflow="visible"><g transform="scale(2.760146409726303) "><circle cx="0" cy="0" fill="transparent" r="31"></circle><svg width="48" height="48" x="-24" y="-24" style="fill: rgb(255, 255, 255);"><svg xmlns="http://www.w3.org/2000/svg" width="48" height="48" viewBox="0 0 48 48"><g fill="none" fill-rule="evenodd"><path fill="#BF0816" d="m20.29 18.04 1.414 1.414-6.998 6.998a.997.997 0 0 1-1.414 0l-3.5-3.499 1.414-1.414 2.793 2.792 6.29-6.291Zm0-11.373 1.414 1.414-6.998 6.998a.997.997 0 0 1-1.414 0l-3.5-3.499 1.414-1.414 2.793 2.792 6.29-6.291Zm-.335 25.909-3.23 3.23 3.23 3.229-1.414 1.414-3.23-3.229-3.23 3.229-1.414-1.414 3.23-3.229-3.23-3.23 1.414-1.414 3.23 3.23 3.23-3.23 1.414 1.414Zm19.288 10.61a.806.806 0 0 1-.805.805H8.806A.806.806 0 0 1 8 43.186V4.806C8 4.361 8.36 4 8.806 4h29.632c.444 0 .805.361.805.806v38.38ZM38.438 2H8.806A2.81 2.81 0 0 0 6 4.806v38.38a2.81 2.81 0 0 0 2.806 2.805h29.632a2.808 2.808 0 0 0 2.805-2.805V4.806A2.809 2.809 0 0 0 38.438 2Z"></path></g></svg></svg></g></svg></g></g><g><g id="9d01a3aa-58c5-4bbd-bd3d-cfddc2cd265c"><svg x="6840" y="180" overflow="visible"><g transform="scale(2.2081171277810427) "><circle cx="0" cy="0" fill="transparent" r="39"></circle><svg width="64" height="64" x="-32" y="-32" style="fill: rgb(255, 255, 255);"><svg xmlns="http://www.w3.org/2000/svg" width="64" height="64" viewBox="0 0 64 64"><defs><linearGradient id="IAM-Identity-Center_svg__a" x1="0%" x2="100%" y1="100%" y2="0%"><stop offset="0%" stop-color="#BD0816"></stop><stop offset="100%" stop-color="#FF5252"></stop></linearGradient></defs><g fill="none" fill-rule="evenodd"><g fill="url(#IAM-Identity-Center_svg__a)"><path d="M0 0h64v64H0z"></path></g><path fill="#FFF" d="M52.032 49.235 41.44 38.643a.998.998 0 0 1-.183-1.161 6.844 6.844 0 0 0-1.244-7.973 6.897 6.897 0 0 0-5.739-1.979c-2.133.257-4.013 1.49-5.16 3.381-1.344 2.216-1.284 5.058.152 7.242 1.987 3.022 5.765 4.002 8.981 2.334a.998.998 0 0 1 1.168.181l1.793 1.792c.207.207.313.495.29.787l-.162 2.012 2.011-.162a.984.984 0 0 1 .788.29l.975.975a1 1 0 0 1 .29.788l-.162 2.011L47.25 49c.29-.032.58.082.787.289l1.463 1.463 2.511.386.021-1.903Zm2.004-.399L54 52.311a1 1 0 0 1-1.152.978l-3.975-.61a1.002 1.002 0 0 1-.556-.281l-1.368-1.368-2.722.219a1.002 1.002 0 0 1-1.077-1.077l.219-2.722-.322-.322-2.722.218a.999.999 0 0 1-1.077-1.076l.219-2.722-.971-.971a8.9 8.9 0 0 1-10.901-3.325c-1.858-2.825-1.933-6.506-.192-9.378 1.468-2.42 3.885-3.998 6.632-4.33a8.895 8.895 0 0 1 7.393 2.551 8.831 8.831 0 0 1 1.918 9.626l10.397 10.397a1 1 0 0 1 .293.718ZM36.258 33.413a1.412 1.412 0 0 0-1-.413 1.41 1.41 0 0 0-1.001.413 1.418 1.418 0 0 0 0 2.001c.552.551 1.45.551 2.001-.001a1.417 1.417 0 0 0 0-2Zm1.414-1.414c.645.645 1 1.503 1 2.415 0 .911-.355 1.769-1 2.414a3.406 3.406 0 0 1-2.414.998 3.407 3.407 0 0 1-2.415-.998 3.418 3.418 0 0 1 0-4.828 3.416 3.416 0 0 1 4.829-.001Zm-18.67 4.994H24v2h-5c-4.884-.01-8.744-3.226-8.981-7.479a10.94 10.94 0 0 1-.019-.578c0-5.202 3.52-7.213 5.71-7.959-.009-.185-.014-.37-.014-.558 0-4.34 2.979-8.834 6.93-10.454 4.607-1.903 9.489-.957 13.056 2.533.887.857 2.008 2.118 2.839 3.655a4.543 4.543 0 0 1 2.955-1.051c2.329 0 4.937 1.877 5.452 5.974C51.622 24.217 54 26.904 54 31.069c0 3.085-1.186 6.963-6.835 7.911l-.33-1.973C50.358 36.416 52 34.529 52 31.069c0-3.381-1.969-5.349-6.197-6.193a.999.999 0 0 1-.801-.922c-.168-2.857-1.618-4.852-3.526-4.852-.959 0-1.716.435-2.457 1.411a1 1 0 0 1-1.736-.26c-.665-1.823-1.996-3.356-2.995-4.321-2.981-2.918-7.054-3.708-10.902-2.117-3.192 1.309-5.69 5.087-5.69 8.604 0 .392.023.772.071 1.159.004.035.007.07.008.105V23.704c0 .499-.365.916-.843.992-1.882.492-4.932 1.952-4.932 6.24 0 .159.009.319.016.47.202 3.619 3.749 5.58 6.986 5.587Z"></path></g></svg></svg></g></svg></g></g><g><g id="37f2847e-cfe2-4559-a158-a4857ef2eeee"><svg x="7853" y="-90" overflow="visible"><g transform="scale(2.760146409726303) "><circle cx="0" cy="0" fill="transparent" r="31"></circle><svg width="48" height="48" x="-24" y="-24" style="fill: rgb(255, 255, 255);"><svg xmlns="http://www.w3.org/2000/svg" width="48" height="48" viewBox="0 0 48 48"><g fill="none" fill-rule="evenodd"><path fill="#B0084D" d="M32 28c3.309 0 6 2.691 6 6s-2.691 6-6 6-6-2.691-6-6 2.691-6 6-6Zm0 14c4.411 0 8-3.589 8-8s-3.589-8-8-8-8 3.589-8 8 3.589 8 8 8Zm2-32.764L38.882 19h-9.764L34 9.236ZM27.5 21h13a1 1 0 0 0 .895-1.447l-6.5-13c-.34-.678-1.45-.678-1.79 0l-6.5 13A1 1 0 0 0 27.5 21ZM9 29h11V18H9v11Zm-1 2h13a1 1 0 0 0 1-1V17a1 1 0 0 0-1-1H8a1 1 0 0 0-1 1v13a1 1 0 0 0 1 1ZM4 44h40V4H4v40ZM45 2H3a1 1 0 0 0-1 1v42a1 1 0 0 0 1 1h42a1 1 0 0 0 1-1V3a1 1 0 0 0-1-1Z"></path></g></svg></svg></g></svg></g></g><g><g id="021704f0-ffed-4ce0-9743-a1c59c4225e5"><svg x="8078" y="360" overflow="visible"><g transform="scale(2.760146409726303) "><circle cx="0" cy="0" fill="transparent" r="31"></circle><svg width="48" height="48" x="-24" y="-24" style="fill: rgb(255, 255, 255);"><svg xmlns="http://www.w3.org/2000/svg" width="48" height="48" viewBox="0 0 48 48"><g fill="none" fill-rule="evenodd"><path fill="#BF0816" d="m20.29 18.04 1.414 1.414-6.998 6.998a.997.997 0 0 1-1.414 0l-3.5-3.499 1.414-1.414 2.793 2.792 6.29-6.291Zm0-11.373 1.414 1.414-6.998 6.998a.997.997 0 0 1-1.414 0l-3.5-3.499 1.414-1.414 2.793 2.792 6.29-6.291Zm-.335 25.909-3.23 3.23 3.23 3.229-1.414 1.414-3.23-3.229-3.23 3.229-1.414-1.414 3.23-3.229-3.23-3.23 1.414-1.414 3.23 3.23 3.23-3.23 1.414 1.414Zm19.288 10.61a.806.806 0 0 1-.805.805H8.806A.806.806 0 0 1 8 43.186V4.806C8 4.361 8.36 4 8.806 4h29.632c.444 0 .805.361.805.806v38.38ZM38.438 2H8.806A2.81 2.81 0 0 0 6 4.806v38.38a2.81 2.81 0 0 0 2.806 2.805h29.632a2.808 2.808 0 0 0 2.805-2.805V4.806A2.809 2.809 0 0 0 38.438 2Z"></path></g></svg></svg></g></svg></g></g><g><g id="a9df3ca7-3601-4e5e-85a3-e7317673bf50"><svg x="7920" y="180" overflow="visible"><g transform="scale(2.760146409726303) "><circle cx="0" cy="0" fill="transparent" r="31"></circle><svg width="48" height="48" x="-24" y="-24" style="fill: rgb(255, 255, 255);"><svg xmlns="http://www.w3.org/2000/svg" width="48" height="48" viewBox="0 0 48 48"><g fill="none" fill-rule="evenodd"><path fill="#BF0816" d="M44.083 32.581a72.853 72.853 0 0 0-2.082.191l-.168.018c-1.765.182-3.763.387-4.714.257-.594-.085-1.688-.56-2.848-1.063-1.966-.852-4.414-1.914-6.627-2.084-3.046-.234-8.31.34-11.703 1.931-1.962-.088-3.782-.616-5.196-1.488a46.44 46.44 0 0 1-.012-.649c0-4.136 1.938-8.015 5.32-10.65a15.176 15.176 0 0 1 7.66-2.052c6.12 0 11.553 3.617 13.672 8.942h-.813c-.814 0-1.496.576-1.663 1.34l-.412-.156c-2.03-.783-4.813-1.854-8.031-1.663-4.705.276-7.02.56-8.843 1.08l.549 1.924c1.668-.477 3.868-.74 8.41-1.008 2.785-.158 5.338.818 7.195 1.533.395.153.752.286 1.09.407v.205c0 .939.766 1.704 1.705 1.704h3.647c.937 0 1.7-.762 1.704-1.698l.354-.032a175.57 175.57 0 0 0 1.595-.151l.21-.021v3.183ZM9.799 34.249c-2.65.363-4.742.039-5.608-.496.525-.371 1.71-.89 2.544-1.254a43.482 43.482 0 0 0 2.16-1.004c1.154.879 2.583 1.538 4.165 1.931-.915.368-2.048.658-3.261.823ZM36.868 29.3h3.055v-1.366h-3.055V29.3ZM26.586 13c8.368 0 15.396 6.295 16.43 14.492-.287.028-.591.057-.912.086l-.185.016a1.704 1.704 0 0 0-1.7-1.66h-.711c-2.201-6.477-8.576-10.942-15.795-10.942-2.674 0-5.29.612-7.641 1.775.017-.014.03-.029.046-.042A16.59 16.59 0 0 1 26.586 13Zm18.94 14.794a1.625 1.625 0 0 0-.497-.298C43.983 18.185 36.049 11 26.586 11a18.595 18.595 0 0 0-11.732 4.175 18.504 18.504 0 0 0-6.85 14.406c0 .041.004.082.004.123-.667.335-1.372.655-2.073.962-2.136.934-3.68 1.608-3.91 2.826-.057.309-.067.914.52 1.502 1.038 1.037 3.028 1.409 5.05 1.409.842 0 1.688-.064 2.474-.172 1.339-.182 3.839-.673 5.536-1.915 2.678-1.941 8.733-2.667 11.886-2.422 1.879.145 4.155 1.132 5.985 1.925 1.396.607 2.5 1.085 3.366 1.208 1.19.163 3.136-.037 5.195-.248l.173-.017a62.627 62.627 0 0 1 1.592-.151c.215-.021.428-.036.712-.056.88-.062 1.569-.8 1.569-1.68v-3.829c0-.478-.202-.934-.556-1.252Z"></path></g></svg></svg></g></svg></g></g><g><g id="87dbb20d-d18f-4346-97f0-5813b397ad10"><svg x="8933" y="-90" overflow="visible"><g transform="scale(2.760146409726303) "><circle cx="0" cy="0" fill="transparent" r="31"></circle><svg width="48" height="48" x="-24" y="-24" style="fill: rgb(255, 255, 255);"><svg xmlns="http://www.w3.org/2000/svg" width="48" height="48" viewBox="0 0 48 48"><g fill="none" fill-rule="evenodd"><path fill="#B0084D" d="M32 28c3.309 0 6 2.691 6 6s-2.691 6-6 6-6-2.691-6-6 2.691-6 6-6Zm0 14c4.411 0 8-3.589 8-8s-3.589-8-8-8-8 3.589-8 8 3.589 8 8 8Zm2-32.764L38.882 19h-9.764L34 9.236ZM27.5 21h13a1 1 0 0 0 .895-1.447l-6.5-13c-.34-.678-1.45-.678-1.79 0l-6.5 13A1 1 0 0 0 27.5 21ZM9 29h11V18H9v11Zm-1 2h13a1 1 0 0 0 1-1V17a1 1 0 0 0-1-1H8a1 1 0 0 0-1 1v13a1 1 0 0 0 1 1ZM4 44h40V4H4v40ZM45 2H3a1 1 0 0 0-1 1v42a1 1 0 0 0 1 1h42a1 1 0 0 0 1-1V3a1 1 0 0 0-1-1Z"></path></g></svg></svg></g></svg></g></g><g><g id="4b37c75f-c6bc-4dea-830a-b089b9ca4e1d"><svg x="9158" y="360" overflow="visible"><g transform="scale(2.760146409726303) "><circle cx="0" cy="0" fill="transparent" r="31"></circle><svg width="48" height="48" x="-24" y="-24" style="fill: rgb(255, 255, 255);"><svg xmlns="http://www.w3.org/2000/svg" width="48" height="48" viewBox="0 0 48 48"><g fill="none" fill-rule="evenodd"><path fill="#BF0816" d="m20.29 18.04 1.414 1.414-6.998 6.998a.997.997 0 0 1-1.414 0l-3.5-3.499 1.414-1.414 2.793 2.792 6.29-6.291Zm0-11.373 1.414 1.414-6.998 6.998a.997.997 0 0 1-1.414 0l-3.5-3.499 1.414-1.414 2.793 2.792 6.29-6.291Zm-.335 25.909-3.23 3.23 3.23 3.229-1.414 1.414-3.23-3.229-3.23 3.229-1.414-1.414 3.23-3.229-3.23-3.23 1.414-1.414 3.23 3.23 3.23-3.23 1.414 1.414Zm19.288 10.61a.806.806 0 0 1-.805.805H8.806A.806.806 0 0 1 8 43.186V4.806C8 4.361 8.36 4 8.806 4h29.632c.444 0 .805.361.805.806v38.38ZM38.438 2H8.806A2.81 2.81 0 0 0 6 4.806v38.38a2.81 2.81 0 0 0 2.806 2.805h29.632a2.808 2.808 0 0 0 2.805-2.805V4.806A2.809 2.809 0 0 0 38.438 2Z"></path></g></svg></svg></g></svg></g></g><g><g id="c280cc0e-9920-4283-8f10-fcca7c71fc17"><svg x="9000" y="180" overflow="visible"><g transform="scale(2.760146409726303) "><circle cx="0" cy="0" fill="transparent" r="31"></circle><svg width="48" height="48" x="-24" y="-24" style="fill: rgb(255, 255, 255);"><svg xmlns="http://www.w3.org/2000/svg" width="48" height="48" viewBox="0 0 48 48"><g fill="none" fill-rule="evenodd"><path fill="#BF0816" d="M44.083 32.581a72.853 72.853 0 0 0-2.082.191l-.168.018c-1.765.182-3.763.387-4.714.257-.594-.085-1.688-.56-2.848-1.063-1.966-.852-4.414-1.914-6.627-2.084-3.046-.234-8.31.34-11.703 1.931-1.962-.088-3.782-.616-5.196-1.488a46.44 46.44 0 0 1-.012-.649c0-4.136 1.938-8.015 5.32-10.65a15.176 15.176 0 0 1 7.66-2.052c6.12 0 11.553 3.617 13.672 8.942h-.813c-.814 0-1.496.576-1.663 1.34l-.412-.156c-2.03-.783-4.813-1.854-8.031-1.663-4.705.276-7.02.56-8.843 1.08l.549 1.924c1.668-.477 3.868-.74 8.41-1.008 2.785-.158 5.338.818 7.195 1.533.395.153.752.286 1.09.407v.205c0 .939.766 1.704 1.705 1.704h3.647c.937 0 1.7-.762 1.704-1.698l.354-.032a175.57 175.57 0 0 0 1.595-.151l.21-.021v3.183ZM9.799 34.249c-2.65.363-4.742.039-5.608-.496.525-.371 1.71-.89 2.544-1.254a43.482 43.482 0 0 0 2.16-1.004c1.154.879 2.583 1.538 4.165 1.931-.915.368-2.048.658-3.261.823ZM36.868 29.3h3.055v-1.366h-3.055V29.3ZM26.586 13c8.368 0 15.396 6.295 16.43 14.492-.287.028-.591.057-.912.086l-.185.016a1.704 1.704 0 0 0-1.7-1.66h-.711c-2.201-6.477-8.576-10.942-15.795-10.942-2.674 0-5.29.612-7.641 1.775.017-.014.03-.029.046-.042A16.59 16.59 0 0 1 26.586 13Zm18.94 14.794a1.625 1.625 0 0 0-.497-.298C43.983 18.185 36.049 11 26.586 11a18.595 18.595 0 0 0-11.732 4.175 18.504 18.504 0 0 0-6.85 14.406c0 .041.004.082.004.123-.667.335-1.372.655-2.073.962-2.136.934-3.68 1.608-3.91 2.826-.057.309-.067.914.52 1.502 1.038 1.037 3.028 1.409 5.05 1.409.842 0 1.688-.064 2.474-.172 1.339-.182 3.839-.673 5.536-1.915 2.678-1.941 8.733-2.667 11.886-2.422 1.879.145 4.155 1.132 5.985 1.925 1.396.607 2.5 1.085 3.366 1.208 1.19.163 3.136-.037 5.195-.248l.173-.017a62.627 62.627 0 0 1 1.592-.151c.215-.021.428-.036.712-.056.88-.062 1.569-.8 1.569-1.68v-3.829c0-.478-.202-.934-.556-1.252Z"></path></g></svg></svg></g></svg></g></g></g><g pointer-events="auto"><g><g id="3ab41c6e-1dec-4369-85b1-0c605106317a"><svg x="5940" y="338" overflow="visible"><text stroke="#ffffff" stroke-width="4" font-family="Open Sans" y="36.5" font-size="25pt" fill="#000000" font-weight="bold" transform="" xml:space="preserve"><tspan x="8" dy="0">Nominal User</tspan></text><text font-family="Open Sans" y="36.5" font-size="25pt" fill="#000000" font-weight="bold" transform="" xml:space="preserve"><tspan x="8" dy="0">Nominal User</tspan></text></svg></g></g><g><g id="82cfab48-9a2b-495c-9693-252713a043f9"><svg x="6008" y="-45" overflow="visible"><text stroke="#ffffff" stroke-width="4" font-family="Open Sans" y="36.5" font-size="25pt" fill="#000000" font-weight="bold" transform="" xml:space="preserve"><tspan x="8" dy="0">Shell</tspan></text><text font-family="Open Sans" y="36.5" font-size="25pt" fill="#000000" font-weight="bold" transform="" xml:space="preserve"><tspan x="8" dy="0">Shell</tspan></text></svg></g></g><g><g id="f5e612af-bc36-41db-adc0-1a5ae13c9057"><svg x="6930" y="225" overflow="visible"><text stroke="#ffffff" stroke-width="4" font-family="Open Sans" y="36.5" font-size="25pt" fill="#000000" font-weight="bold" transform="" xml:space="preserve"><tspan x="8" dy="0">Iam User</tspan></text><text font-family="Open Sans" y="36.5" font-size="25pt" fill="#000000" font-weight="bold" transform="" xml:space="preserve"><tspan x="8" dy="0">Iam User</tspan></text></svg></g></g><g><g id="b9b4f136-1d80-4d4b-8958-8791f8deb5db"><svg x="7088" y="338" overflow="visible"><text stroke="#ffffff" stroke-width="4" font-family="Open Sans" y="36.5" font-size="25pt" fill="#000000" font-weight="bold" transform="" xml:space="preserve"><tspan x="8" dy="0">Assume Role</tspan></text><text font-family="Open Sans" y="36.5" font-size="25pt" fill="#000000" font-weight="bold" transform="" xml:space="preserve"><tspan x="8" dy="0">Assume Role</tspan></text></svg></g></g><g><g id="2ea35b4f-6b07-428d-9571-08b0e10f9878"><svg x="6863" y="-112" overflow="visible"><text stroke="#ffffff" stroke-width="4" font-family="Open Sans" y="36.5" font-size="25pt" fill="#000000" font-weight="bold" transform="" xml:space="preserve"><tspan x="8" dy="0">Auth</tspan></text><text font-family="Open Sans" y="36.5" font-size="25pt" fill="#000000" font-weight="bold" transform="" xml:space="preserve"><tspan x="8" dy="0">Auth</tspan></text></svg></g></g><g><g id="7c04c4ce-c261-42b8-adbc-ca62bbe78bf9"><svg x="7965" y="225" overflow="visible"><text stroke="#ffffff" stroke-width="4" font-family="Open Sans" y="36.5" font-size="25pt" fill="#000000" font-weight="bold" transform="" xml:space="preserve"><tspan x="8" dy="0">Iam Role</tspan></text><text font-family="Open Sans" y="36.5" font-size="25pt" fill="#000000" font-weight="bold" transform="" xml:space="preserve"><tspan x="8" dy="0">Iam Role</tspan></text></svg></g></g><g><g id="010fe0df-db84-4a9e-8b6b-34b8896bb963"><svg x="8168" y="338" overflow="visible"><text stroke="#ffffff" stroke-width="4" font-family="Open Sans" y="36.5" font-size="25pt" fill="#000000" font-weight="bold" transform="" xml:space="preserve"><tspan x="8" dy="0">Assume Role</tspan></text><text font-family="Open Sans" y="36.5" font-size="25pt" fill="#000000" font-weight="bold" transform="" xml:space="preserve"><tspan x="8" dy="0">Assume Role</tspan></text></svg></g></g><g><g id="613f4612-5e23-4b8b-aaf8-a6f57a3a3479"><svg x="7943" y="-112" overflow="visible"><text stroke="#ffffff" stroke-width="4" font-family="Open Sans" y="36.5" font-size="25pt" fill="#000000" font-weight="bold" transform="" xml:space="preserve"><tspan x="8" dy="0">Account 1</tspan></text><text font-family="Open Sans" y="36.5" font-size="25pt" fill="#000000" font-weight="bold" transform="" xml:space="preserve"><tspan x="8" dy="0">Account 1</tspan></text></svg></g></g><g><g id="c76936f6-99fd-4968-99da-70ac5c2aa714"><svg x="9023" y="-112" overflow="visible"><text stroke="#ffffff" stroke-width="4" font-family="Open Sans" y="36.5" font-size="25pt" fill="#000000" font-weight="bold" transform="" xml:space="preserve"><tspan x="8" dy="0">Account 2</tspan></text><text font-family="Open Sans" y="36.5" font-size="25pt" fill="#000000" font-weight="bold" transform="" xml:space="preserve"><tspan x="8" dy="0">Account 2</tspan></text></svg></g></g><g><g id="5fdaf663-0c22-4515-8852-36d1359297ae"><svg x="9248" y="338" overflow="visible"><text stroke="#ffffff" stroke-width="4" font-family="Open Sans" y="36.5" font-size="25pt" fill="#000000" font-weight="bold" transform="" xml:space="preserve"><tspan x="8" dy="0">Permissions</tspan></text><text font-family="Open Sans" y="36.5" font-size="25pt" fill="#000000" font-weight="bold" transform="" xml:space="preserve"><tspan x="8" dy="0">Permissions</tspan></text></svg></g></g><g><g id="80e28884-a172-48ac-a1f7-b9144f6d88b8"><svg x="9045" y="225" overflow="visible"><text stroke="#ffffff" stroke-width="4" font-family="Open Sans" y="36.5" font-size="25pt" fill="#000000" font-weight="bold" transform="" xml:space="preserve"><tspan x="8" dy="0">Iam Role</tspan></text><text font-family="Open Sans" y="36.5" font-size="25pt" fill="#000000" font-weight="bold" transform="" xml:space="preserve"><tspan x="8" dy="0">Iam Role</tspan></text></svg></g></g></g></g></svg>